<?xml version="1.0" encoding="utf-8"?>
<!-- Generator: Adobe Illustrator 19.2.1, SVG Export Plug-In . SVG Version: 6.00 Build 0)  -->
<svg version="1.1" id="Layer_1" xmlns="http://www.w3.org/2000/svg" xmlns:xlink="http://www.w3.org/1999/xlink" x="0px" y="0px"
	 viewBox="0 0 483 116.2" style="enable-background:new 0 0 483 116.2;" xml:space="preserve">
<style type="text/css">
	.st0{fill:#BE1E2D;}
</style>
<g>
	<path class="st0" d="M213.1,35.7c-1.5-1.3-3.6-1.9-6.1-1.7L206,34l1.2,16.2l0.5,0c2.7-0.2,4.8-1.1,6.2-2.7c1.4-1.6,2-3.7,1.9-6.3
		C215.5,38.8,214.7,37,213.1,35.7z"/>
	<path class="st0" d="M199.7,34.5c-2.5,0.2-4.4,1-5.8,2.6c-1.3,1.5-1.9,3.5-1.7,5.9c0.2,2.6,1.1,4.5,2.7,5.9
		c1.6,1.4,3.8,1.9,6.6,1.7l0.4,0l-1.2-16.2L199.7,34.5z"/>
	<path class="st0" d="M483,28.4C324.3-9.5,158.7-9.5,0,28.4c11.2,12.8,22,25.8,32.5,38.9c-4.1,16.3-7.8,32.6-11.2,48.9
		c144.7-34.5,295.7-34.5,440.4,0c-3.4-16.3-7.1-32.6-11.2-48.9C461,54.2,471.8,41.2,483,28.4z M73.1,64.4l-4.9-1.3l-3.8,3.3l-0.4-5
		l-4.3-2.6l4.7-1.8l1.2-4.9l3.2,3.9l5.1-0.4l-2.7,4.3L73.1,64.4z M104.5,58.4l-4.8-1.7l-4.1,3l0.1-5.1l-4.1-3l4.9-1.5l1.6-4.8
		l2.9,4.2h5.1l-3.1,4L104.5,58.4z M133.9,54.8l-4.7-1.9l-4.3,2.8l0.4-5.1l-3.9-3.2l4.9-1.2l1.8-4.7l2.7,4.3l5.1,0.3l-3.3,3.9
		L133.9,54.8z M179.2,57.7c-2.3,3.4-5.9,5.4-10.8,6.1c-5,0.7-9-0.2-12.1-2.8c-3.1-2.6-5-6.6-5.8-12c-0.8-5.4,0-9.8,2.3-13.1
		c2.3-3.3,5.9-5.3,10.9-6c4.9-0.7,8.9,0.3,12,2.9c3.1,2.6,5,6.6,5.8,12C182.2,50,181.4,54.4,179.2,57.7z M219.8,47.7
		c-1,2.1-2.5,3.7-4.5,4.8c-2,1.1-4.3,1.8-7.1,2l-0.7,0.1l0.4,5.1l-5.1,0.4l-0.4-5.1l-0.8,0.1c-2.7,0.2-5.1-0.1-7.3-1
		c-2.1-0.8-3.8-2.2-5.2-4.1c-1.3-1.9-2.1-4.1-2.2-6.5c-0.2-2.3,0.2-4.5,1.1-6.5c0.9-2,2.3-3.6,4.2-4.8c1.9-1.2,4.2-1.9,6.9-2.1
		l1.3-0.1l-0.3-4.1l5.1-0.4l0.3,4.1l1.4-0.1c2.7-0.2,5.1,0.2,7.1,1.1c2.1,0.9,3.7,2.3,4.8,4.1c1.2,1.8,1.9,3.9,2,6.3
		C221.2,43.4,220.8,45.7,219.8,47.7z M228.6,58.1l-0.6-33.3l18.8-0.4l0.1,4.6l-13.4,0.3l0.2,9.1l12.6-0.2l0.1,4.6l-12.6,0.2
		l0.2,10.5l13.4-0.3l0.1,4.6L228.6,58.1z M277,35.2c-0.1,3.5-1.3,6.1-3.7,7.9c-2.3,1.8-5.6,2.6-9.8,2.5l-3.5-0.1l-0.4,12.5l-5.4-0.2
		l1-33.3l9.6,0.3c4.2,0.1,7.3,1.1,9.3,2.8C276.1,29.3,277.1,31.9,277,35.2z M294,59.7l-5.4-0.4l2.3-28.6l-9.8-0.8l0.4-4.7l25,2
		l-0.4,4.7l-9.8-0.8L294,59.7z M328.9,63.9l-2-9.6l-12.6-1.7l-4.5,8.7l-5.7-0.8L321,29l5.9,0.8l7.8,34.9L328.9,63.9z M358.5,55.6
		l-4.3-2.8l-4.7,1.9l1.3-4.8l-3.3-3.9l5.1-0.3l2.7-4.3l1.8,4.7l4.9,1.2l-3.9,3.2L358.5,55.6z M387.9,59.8l-4.1-3l-4.8,1.7l1.5-4.9
		l-3.1-4h5.1l2.9-4.2l1.6,4.8l4.9,1.5l-4.1,3L387.9,59.8z M419.5,61.2l-0.3,5.1l-3.8-3.3l-4.9,1.3l1.8-4.6l-2.7-4.3l5.1,0.4l3.2-3.9
		l1.2,4.9l4.7,1.8L419.5,61.2z"/>
	<path class="st0" d="M172,36.6c-1.9-1.9-4.5-2.6-7.7-2.1c-3.2,0.5-5.5,1.8-6.9,4.2c-1.4,2.3-1.7,5.5-1.2,9.6c0.6,4.1,1.8,7,3.8,8.9
		c1.9,1.9,4.5,2.6,7.7,2.1c3.2-0.5,5.5-1.8,6.8-4.1c1.3-2.3,1.7-5.5,1.1-9.6C175.1,41.4,173.9,38.4,172,36.6z"/>
	<path class="st0" d="M323.7,37c-0.2-1.4-0.4-2.3-0.4-3c-0.7,1.8-1.5,3.7-2.6,5.8l-4.2,8.2l9.6,1.3l-1.9-9.4
		C324.1,39.4,323.9,38.4,323.7,37z"/>
	<path class="st0" d="M264.3,29.3l-3.8-0.1l-0.3,11.7l2.9,0.1c2.8,0.1,4.9-0.3,6.2-1.3c1.3-0.9,2-2.4,2.1-4.5
		c0.1-1.9-0.5-3.4-1.6-4.3C268.6,29.9,266.8,29.4,264.3,29.3z"/>
</g>
</svg>
